<svg version="1.1" xmlns="http://www.w3.org/2000/svg" xmlns:xlink="http://www.w3.org/1999/xlink" viewBox="0 0 851 268.2" style="enable-background:new 0 0 851 268.2;" xml:space="preserve">
<style type="text/css">
	.main-logo-color-1{fill:#FFFFFF;}
	.main-logo-color-2{fill:none;stroke:#FFD233;stroke-width:3;stroke-miterlimit:10;}
</style>
<defs>
</defs>
<g>
	<path d="M335.3,51.4h-21.4V48h46.6v3.4H339V111h-3.7V51.4z"/>
	<path d="M359,89.8c0-12.6,8.7-22.6,21.9-22.6c13.1,0,21.9,10,21.9,22.6c0,12.7-8.7,22.6-21.9,22.6C367.7,112.3,359,102.4,359,89.8z
		 M399,89.8c0-11.2-7.6-19.2-18.2-19.2c-10.7,0-18.2,8-18.2,19.2c0,11.2,7.5,19.2,18.2,19.2C391.4,108.9,399,100.9,399,89.8z"/>
	<path d="M415.7,125.8v-4c5.5,4,12.4,5.2,16.9,5.2c11.4,0,16.2-6.1,16.2-15.7v-7c-3.1,4-9,7.2-15.6,7.2c-12.3,0-20.4-9.4-20.4-22.2
		s8.1-22.2,20.4-22.2c6.6,0,12.5,3.1,15.6,7.2v-5.8h3.5v42.8c0,10.7-5.5,19-19.7,19C425.7,130.4,419.5,128.3,415.7,125.8z
		 M448.9,100.5V78.3c-2.5-3.8-8.5-7.7-15.1-7.7c-10.2,0-17.2,7.8-17.2,18.8c0,11.3,7,18.9,17.2,18.9
		C440.2,108.3,446.3,104.3,448.9,100.5z"/>
	<path d="M464.4,89.5c0-13.9,9.3-22.3,20.7-22.3c11,0,19.5,8.6,19.5,21.1c0,1.1-0.1,2.3-0.2,2.9h-36.4c0.2,10.7,8,17.8,17.3,17.8
		c6.7,0,11.7-1.6,17.5-5.9v3.9c-3.7,2.5-9.1,5.4-17.5,5.4C474.1,112.3,464.4,104.2,464.4,89.5z M500.9,88c0.1-11-7-17.5-15.7-17.5
		c-9.5,0-16.6,6.9-16.9,17.5H500.9z"/>
	<path d="M521,102.2V71.9H513v-3.2h8.1V53.3l3.3-2v17.3h11.1v3.2h-11.1v29.9c0,5.6,3.2,7.4,6.5,7.4c2.2,0,3.6-0.4,4.7-1v3.3
		c-1,0.4-3.1,0.9-5.5,0.9C525.4,112.3,521,109.4,521,102.2z"/>
	<path d="M549.9,45.8h3.5v28.4c2.7-3.3,7.6-7,14.6-7c8.8,0,15.5,6.2,15.5,15V111H580V83c0-7.2-5.4-12.3-12.6-12.3
		c-6.1,0-10.6,3.1-13.9,7.2V111h-3.5V45.8z"/>
	<path d="M596.5,89.5c0-13.9,9.3-22.3,20.7-22.3c11,0,19.5,8.6,19.5,21.1c0,1.1-0.1,2.3-0.2,2.9h-36.4c0.2,10.7,8,17.8,17.3,17.8
		c6.7,0,11.7-1.6,17.5-5.9v3.9c-3.7,2.5-9.1,5.4-17.5,5.4C606.1,112.3,596.5,104.2,596.5,89.5z M632.9,88c0.1-11-7-17.5-15.7-17.5
		c-9.5,0-16.6,6.9-16.9,17.5H632.9z"/>
	<path d="M650.5,68.6h3.4v9.2c2.1-5.1,7.6-10.6,14.7-10.6c1.3,0,2.7,0.2,3.7,0.4v4c-1.3-0.4-2.7-0.5-4-0.5
		c-7.3,0-11.8,5.3-14.2,10.7V111h-3.5V68.6z"/>
	<path d="M318.4,158h4.3l39.9,56.5V158h3.6v63h-3.8L322,163v58h-3.6V158z"/>
	<path d="M380.8,199.8c0-12.6,8.7-22.6,21.9-22.6c13.1,0,21.9,10,21.9,22.6c0,12.7-8.7,22.6-21.9,22.6
		C389.6,222.3,380.8,212.4,380.8,199.8z M420.9,199.8c0-11.2-7.6-19.2-18.2-19.2c-10.7,0-18.2,8-18.2,19.2
		c0,11.2,7.5,19.2,18.2,19.2C413.3,218.9,420.9,210.9,420.9,199.8z"/>
	<path d="M440.9,212.2v-30.3h-7.9v-3.2h8.1v-15.3l3.3-2v17.3h11.1v3.2h-11.1v29.9c0,5.6,3.2,7.4,6.5,7.4c2.2,0,3.6-0.4,4.7-1v3.3
		c-1,0.4-3.1,0.9-5.5,0.9C445.3,222.3,440.9,219.4,440.9,212.2z"/>
	<path d="M514,161.4h-21.4V158h46.6v3.4h-21.5V221H514V161.4z"/>
	<path d="M537.7,199.8c0-12.6,8.7-22.6,21.9-22.6c13.1,0,21.9,10,21.9,22.6c0,12.7-8.7,22.6-21.9,22.6
		C546.4,222.3,537.7,212.4,537.7,199.8z M577.7,199.8c0-11.2-7.6-19.2-18.2-19.2c-10.7,0-18.2,8-18.2,19.2
		c0,11.2,7.5,19.2,18.2,19.2C570.2,218.9,577.7,210.9,577.7,199.8z"/>
	<path d="M594.5,235.8v-4c5.5,4,12.4,5.2,16.9,5.2c11.4,0,16.2-6.1,16.2-15.7v-7c-3.1,4-9,7.2-15.6,7.2c-12.3,0-20.4-9.4-20.4-22.2
		s8.1-22.2,20.4-22.2c6.6,0,12.5,3.1,15.6,7.2v-5.8h3.5v42.8c0,10.7-5.5,19-19.7,19C604.5,240.4,598.3,238.3,594.5,235.8z
		 M627.6,210.5v-22.1c-2.5-3.8-8.5-7.7-15.1-7.7c-10.2,0-17.2,7.8-17.2,18.8c0,11.3,7,18.9,17.2,18.9
		C619,218.3,625,214.3,627.6,210.5z"/>
	<path d="M643.2,199.5c0-13.9,9.3-22.3,20.7-22.3c11,0,19.5,8.6,19.5,21.1c0,1.1-0.1,2.3-0.2,2.9h-36.4c0.2,10.7,8,17.8,17.3,17.8
		c6.7,0,11.7-1.6,17.5-5.9v3.9c-3.7,2.5-9.1,5.4-17.5,5.4C652.8,222.3,643.2,214.2,643.2,199.5z M679.6,198c0.1-11-7-17.5-15.7-17.5
		c-9.5,0-16.6,6.9-16.9,17.5H679.6z"/>
	<path d="M699.7,212.2v-30.3h-7.9v-3.2h8.1v-15.3l3.3-2v17.3h11.1v3.2h-11.1v29.9c0,5.6,3.2,7.4,6.5,7.4c2.2,0,3.6-0.4,4.7-1v3.3
		c-1,0.4-3.1,0.9-5.5,0.9C704.1,222.3,699.7,219.4,699.7,212.2z"/>
	<path d="M728.7,155.8h3.5v28.4c2.7-3.3,7.6-7,14.6-7c8.8,0,15.5,6.2,15.5,15V221h-3.5v-28c0-7.2-5.4-12.3-12.6-12.3
		c-6.1,0-10.6,3.1-13.9,7.2V221h-3.5V155.8z"/>
	<path d="M775.2,199.5c0-13.9,9.3-22.3,20.7-22.3c11,0,19.5,8.6,19.5,21.1c0,1.1-0.1,2.3-0.2,2.9h-36.4c0.2,10.7,8,17.8,17.3,17.8
		c6.7,0,11.7-1.6,17.5-5.9v3.9c-3.7,2.5-9.1,5.4-17.5,5.4C784.8,222.3,775.2,214.2,775.2,199.5z M811.7,198c0.1-11-7-17.5-15.7-17.5
		c-9.5,0-16.6,6.9-16.9,17.5H811.7z"/>
	<path d="M829.2,178.6h3.4v9.2c2.1-5.1,7.6-10.6,14.7-10.6c1.3,0,2.7,0.2,3.7,0.4v4c-1.3-0.4-2.7-0.5-4-0.5
		c-7.3,0-11.8,5.3-14.2,10.7V221h-3.5V178.6z"/>
</g>
<g>
	<path class="main-logo-color-1" d="M250.6,67.7c36.7,64.3,14.3,146.2-50,182.9s-146.2,14.3-182.9-50L250.6,67.7z"/>
	<path class="main-logo-color-1" d="M17.6,200.5c-36.7-64.3-14.3-146.2,50-182.9s146.2-14.3,182.9,50L17.6,200.5z"/>
	<polygon points="141.3,144 126.8,152.2 126.9,199.5 115.9,203.6 115.9,205 151.9,205 151.9,203.6 141.3,199.5 	"/>
	<polygon points="141.3,66.6 168.5,66.6 180,86.2 181.3,86.2 181.5,63.2 86.7,63.2 86.7,86.2 88,86.2 99.7,66.6 126.7,66.6
		126.8,124.2 141.3,116 	"/>
	<path class="main-logo-color-2" d="M250.4,67.3L17.8,200.9"/>
</g>
</svg>
